<svg width="20" height="21" viewBox="0 0 20 21" fill="none" xmlns="http://www.w3.org/2000/svg">
<path d="M18.1601 15.7914C17.8576 16.4901 17.4996 17.1333 17.0847 17.7247C16.5193 18.5309 16.0564 19.0889 15.6996 19.3987C15.1466 19.9073 14.554 20.1678 13.9194 20.1827C13.464 20.1827 12.9145 20.053 12.2751 19.79C11.6335 19.5283 11.0438 19.3987 10.5048 19.3987C9.93934 19.3987 9.33292 19.5283 8.68434 19.79C8.03469 20.053 7.51137 20.19 7.11127 20.2037C6.50277 20.2296 5.89624 19.9617 5.29084 19.3987C4.90443 19.0617 4.4211 18.484 3.8421 17.6654C3.2209 16.7913 2.6935 15.7779 2.31007 14.6779C1.88156 13.3742 1.66675 12.1657 1.66675 10.9955C1.66675 9.6552 1.95637 8.49915 2.53647 7.53042C2.99238 6.7523 3.5989 6.13848 4.35803 5.68787C5.11714 5.23727 5.93736 5.00765 6.82066 4.99296C7.30398 4.99296 7.93788 5.14246 8.72539 5.43628C9.51083 5.73108 10.0152 5.8806 10.2362 5.8806C10.4013 5.8806 10.9562 5.70577 11.9115 5.35726C12.8096 5.03406 13.5676 4.90025 14.1886 4.95296C15.8713 5.08876 17.1354 5.75207 17.9761 6.9471C16.4712 7.85893 15.7269 9.13615 15.7416 10.7744C15.7552 12.0508 16.2173 13.1124 17.128 13.9557C17.5403 14.347 18.0009 14.6494 18.5131 14.8643C18.402 15.1864 18.2847 15.4951 18.1601 15.7914ZM14.301 0.605436C14.301 1.60566 13.9355 2.53957 13.2071 3.404C12.3282 4.43162 11.265 5.02543 10.112 4.93173C10.0974 4.81173 10.0895 4.68544 10.0895 4.55273C10.0895 3.59251 10.5069 2.56488 11.2492 1.72467C11.6197 1.29924 12.0911 0.945512 12.6626 0.663335C13.2331 0.385368 13.7725 0.231646 14.28 0.205322C14.2947 0.339037 14.301 0.472773 14.301 0.605436Z" fill="white"/>
</svg>
