<svg width="18" height="19" viewBox="0 0 18 19" fill="none" xmlns="http://www.w3.org/2000/svg">
<path fill-rule="evenodd" clip-rule="evenodd" d="M17.64 9.40951C17.64 8.77133 17.5827 8.15769 17.4764 7.5686H9V11.05H13.8436C13.635 12.175 13.0009 13.1282 12.0477 13.7664V16.0245H14.9564C16.6582 14.4577 17.64 12.1504 17.64 9.40951Z" fill="#4285F4"/>
<path fill-rule="evenodd" clip-rule="evenodd" d="M9 18.205C11.43 18.205 13.4673 17.3991 14.9564 16.0246L12.0477 13.7664C11.2418 14.3064 10.2109 14.6255 9 14.6255C6.65591 14.6255 4.67182 13.0423 3.96409 10.915H0.957275V13.2468C2.43818 16.1882 5.48182 18.205 9 18.205Z" fill="#34A853"/>
<path fill-rule="evenodd" clip-rule="evenodd" d="M3.96409 10.9152C3.78409 10.3752 3.68182 9.79833 3.68182 9.20514C3.68182 8.61196 3.78409 8.03514 3.96409 7.49514V5.16333H0.957273C0.347727 6.37833 0 7.75287 0 9.20514C0 10.6575 0.347727 12.0319 0.957273 13.247L3.96409 10.9152Z" fill="#FBBC05"/>
<path fill-rule="evenodd" clip-rule="evenodd" d="M9 3.78463C10.3214 3.78463 11.5077 4.23872 12.4405 5.13053L15.0218 2.54917C13.4632 1.0969 11.4259 0.205078 9 0.205078C5.48182 0.205078 2.43818 2.2219 0.957275 5.16326L3.96409 7.49508C4.67182 5.36781 6.65591 3.78463 9 3.78463Z" fill="#EA4335"/>
</svg>
